<svg width="24" height="20" viewBox="0 0 24 20" fill="none" xmlns="http://www.w3.org/2000/svg">
<path d="M10 17.5C10 18.3284 9.32843 19 8.5 19C7.67157 19 7 18.3284 7 17.5C7 16.6716 7.67157 16 8.5 16C9.32843 16 10 16.6716 10 17.5Z" stroke="white" stroke-width="0.8"/>
<path d="M21 17.5C21 18.3284 20.3284 19 19.5 19C18.6716 19 18 18.3284 18 17.5C18 16.6716 18.6716 16 19.5 16C20.3284 16 21 16.6716 21 17.5Z" stroke="white" stroke-width="0.8"/>
<path d="M3.28563 3.52423C3.26425 3.44788 3.2396 3.37256 3.21176 3.29846L20.9481 6.40231C21.6164 6.51927 22.0694 7.14803 21.9688 7.81902L21.0138 14.1854C20.922 14.7973 20.3964 15.25 19.7776 15.25H7.51692C6.95637 15.25 6.46436 14.8768 6.31322 14.337L3.28563 3.52423Z" stroke="white" stroke-width="1.5"/>
<circle cx="13" cy="5" r="5" fill="white"/>
<circle cx="10" cy="5" r="1" fill="black"/>
<circle cx="13" cy="5" r="1" fill="black"/>
<circle cx="16" cy="5" r="1" fill="black"/>
</svg>
