<svg width="24" height="22" viewBox="0 0 24 22" fill="none" xmlns="http://www.w3.org/2000/svg">
<path d="M11.3243 0.619415C11.7066 0.268953 12.2934 0.268953 12.6757 0.619414L22.4839 9.61028C23.0218 10.1033 22.673 11 21.9434 11H20C19.7239 11 19.5 11.2239 19.5 11.5V21C19.5 21.5523 19.0523 22 18.5 22H16C15.4477 22 15 21.5523 15 21V14.75C15 14.1977 14.5523 13.75 14 13.75H10C9.44772 13.75 9 14.1977 9 14.75V21C9 21.5523 8.55228 22 8 22H5.5C4.94772 22 4.5 21.5523 4.5 21V11.5C4.5 11.2239 4.27614 11 4 11H2.05664C1.32703 11 0.978229 10.1033 1.51606 9.61028L11.3243 0.619415Z" fill="white"/>
</svg>
